<?xml version="1.0" encoding="UTF-8"?>
<svg width="77px" height="14px" viewBox="0 0 77 14" version="1.1" xmlns="http://www.w3.org/2000/svg" xmlns:xlink="http://www.w3.org/1999/xlink">
    <title>logoWhite</title>
    <g id="页面-1" stroke="none" stroke-width="1" fill="none" fill-rule="evenodd">
        <g id="画板" transform="translate(-44.000000, -34.000000)" fill-rule="nonzero">
            <g id="main" transform="translate(20.000000, 20.000000)">
                <g id="item#" transform="translate(24.000000, 14.000000)">
                    <path d="M41.7031232,13.5223169 L41.7031232,10.5980693 L45.037138,10.5980693 L45.037138,13.5223169 L48.3897785,13.5223169 L48.3897785,0.298012493 L38.3504827,0.298012493 L38.3504827,13.5223169 L41.7031232,13.5223169 Z M45.037138,7.71107325 L41.7031232,7.71107325 L41.7031232,3.27813742 L45.037138,3.27813742 L45.037138,7.71107325 Z" id="-" fill="#299FF5"></path>
                    <path d="M3.35264055,13.5223169 L3.35264055,10.8029529 L5.42010221,9.62952868 L7.48756388,10.8029529 L7.48756388,13.5223169 L10.8402044,13.5223169 L10.8402044,8.79136854 L8.08358887,7.17092561 L10.8402044,5.47597956 L10.8402044,0.298012493 L7.48756388,0.298012493 L7.48756388,3.52027257 L5.42010221,4.73094832 L3.35264055,3.52027257 L3.35264055,0.298012493 L-5.30538576e-15,0.298012493 L-5.30538576e-15,5.47597956 L2.75661556,7.17092561 L-5.30538576e-15,8.79136854 L-5.30538576e-15,13.5223169 L3.35264055,13.5223169 Z M17.4896082,13.8203294 C20.1530948,13.8203294 22.8910846,12.40477 22.8910846,9.6109029 C22.8910846,6.44452016 20.4138558,5.73674049 17.6386144,5.47597956 C16.4093129,5.36422487 15.5711528,5.15934128 15.5711528,4.33980693 L15.5711528,3.05462805 L19.20318,3.05462805 L19.20318,4.33980693 L22.3881885,4.33980693 C22.4440659,1.47143668 19.9109597,1.72425037e-14 17.3778535,1.72425037e-14 C14.6398637,1.72425037e-14 12.1998864,1.47143668 12.1998864,4.33980693 C12.1998864,7.13367405 14.6398637,8.02771153 17.0425894,8.19534355 C18.01113,8.26984668 19.4453152,8.3443498 19.4453152,9.49914821 L19.4453152,10.8215786 L15.4035207,10.8215786 L15.4035207,9.49914821 L12.069506,9.49914821 C12.0136286,12.40477 14.6957411,13.8203294 17.4896082,13.8203294 Z M30.676661,13.8203294 C33.5450312,13.8203294 36.5251562,12.2930153 37.046678,8.47473027 L33.6754117,8.47473027 C33.2842703,9.94616695 32.0735945,10.6353208 30.676661,10.6353208 C28.5719478,10.6353208 27.2308915,8.99625213 27.2308915,6.94741624 C27.2308915,4.71232254 28.5719478,3.24088586 30.676661,3.24088586 C32.0735945,3.24088586 33.0980125,3.76240772 33.6009086,5.15934128 L37.046678,5.15934128 C36.4692788,1.52731403 33.4146508,1.72425037e-14 30.676661,1.72425037e-14 C27.1563884,1.72425037e-14 23.7292447,2.29097104 23.7292447,6.94741624 C23.7292447,11.5293583 27.1563884,13.8203294 30.676661,13.8203294 Z M53.6049972,13.5223169 L53.6049972,10.0765474 L55.9518455,10.0765474 C59.1368541,10.0765474 60.7945486,8.40022714 60.7945486,5.28972175 C60.7945486,2.17921635 59.1368541,0.298012493 55.9518455,0.298012493 L50.2523566,0.298012493 L50.2523566,13.5223169 L53.6049972,13.5223169 Z M55.9518455,7.09642249 L53.6049972,7.09642249 L53.6049972,3.27813742 L55.9518455,3.27813742 C56.9576377,3.27813742 57.4977853,4.04179443 57.4977853,5.15934128 C57.4977853,6.27688813 56.9576377,7.09642249 55.9518455,7.09642249 Z M71.2994889,13.5223169 L71.2994889,10.3559341 L65.5441227,10.3559341 L65.5441227,8.17671777 L71.0014764,8.17671777 L71.0014764,5.19659284 L65.5441227,5.19659284 L65.5441227,3.27813742 L71.2994889,3.27813742 L71.2994889,0.298012493 L62.1914821,0.298012493 L62.1914821,13.5223169 L71.2994889,13.5223169 Z M76.3843271,9.10800681 L76.3843271,0.298012493 L73.0316865,0.298012493 L73.0316865,9.10800681 L76.3843271,9.10800681 Z M74.7080068,13.8203294 C75.7696763,13.8203294 76.5333333,13.0566723 76.5333333,11.9950028 C76.5333333,10.9333333 75.7696763,10.1696763 74.7080068,10.1696763 C73.6463373,10.1696763 72.8826803,10.9333333 72.8826803,11.9950028 C72.8826803,13.0566723 73.6463373,13.8203294 74.7080068,13.8203294 Z" id="-" fill="#FFFFFF"></path>
                </g>
            </g>
        </g>
    </g>
</svg>